<svg width="22" height="22" viewBox="0 0 22 22" fill="none" xmlns="http://www.w3.org/2000/svg">
  <circle cx="11" cy="11.4297" r="10.5703" fill="currentColor"/>
  <path d="M9.214 6.20037C9.214 5.73571 9.37833 5.36737 9.707 5.09537C10.0357 4.81204 10.4267 4.67037 10.88 4.67037C11.3447 4.67037 11.7357 4.81204 12.053 5.09537C12.3817 5.36737 12.546 5.73571 12.546 6.20037C12.546 6.65371 12.3817 7.02204 12.053 7.30537C11.7357 7.57737 11.3447 7.71337 10.88 7.71337C10.4267 7.71337 10.0357 7.57737 9.707 7.30537C9.37833 7.02204 9.214 6.65371 9.214 6.20037ZM9.452 9.03937H12.308V16.8594H9.452V9.03937Z" fill="#F4E7DD"/>
</svg>
