<svg xmlns="http://www.w3.org/2000/svg" height="168.6" width="238.8" viewBox="0 0 238.8 168.6">
  <path d="M.5 79.5h238.1V0H.5v79.5zm11.4 13.7H8.7v4.9H12c2 0 3.2-.6 3.2-2.5 0-1.7-1.2-2.4-3.2-2.4m3.8 15.8l-.7-4.4c-.4-2.4-1-2.8-3.6-2.8H8.7v7.2H.5V89.4h14c5.5 0 8.8 1.7 8.8 5.7 0 2.9-2 4.2-4.5 4.5 2.8.3 3.8 1.6 4 3.2l1 4.5.3 1.7h-8.4zm22.9-15.8c-2.8 0-4.8 1.8-4.8 6 0 4 1.8 6 4.8 6 2.8 0 4.7-1.8 4.7-6 0-4.3-2-6-4.7-6m0 16.3c-10 0-13.3-4.2-13.3-10.3 0-7.9 6.2-10.3 13.3-10.3 9.7 0 13.3 4.3 13.3 10.3 0 7.7-6.3 10.3-13.3 10.3m26.5 0c-10.1 0-11.9-3-11.9-6.7h8.5c.2 2 1 3 3.4 3 1.7 0 3.4-.3 3.4-2 0-1.4-2.5-1.9-3.6-2.2l-5.3-1.3c-3.2-.8-6-1.7-6-5.1 0-3.9 4-6.3 11.5-6.3 8.3 0 11 2.1 11.5 6.3h-8.2c-.2-2-1.4-2.7-3.3-2.7-1.8 0-3 .6-3 1.8 0 1.3 1.3 1.6 3.2 2l5.3 1.3c3.3.8 6.6 1.7 6.6 5.5s-3 6.4-12.1 6.4m26.6-15.2l-3.3 7.1H95l-3.2-7zm6.6 14.7l-1.5-3.3H86.6L85 109H77l10-19.6h10.5l10 19.6h-9.1zM.5 138.5v-19.6H9v15H18v4.6H.5zm30.8.5c-6.5 0-11.8-1.4-11.8-8.7V119h8v10.7c0 3.8 1.2 5 3.8 5 2.5 0 3.9-1.2 3.9-5V119h8v11.4c0 7-5.4 8.7-11.9 8.7m32.4-.5l-4.6-6.8-4.7 6.8H44.2l8.7-10-8.2-9.6h10.7l4.2 6.4 4.3-6.4H74l-8.4 9.5 8.8 10.1H63.7zm12.2 0v-19.6h19v4H84.2v3.7h10v4h-10v3.8H95v4.1H76zm48 0V123l-5.3 15.5h-8.2L105 123v15.5h-7v-19.6h12.6l4.1 13.3L119 119h12.6v19.6H124zm22-8.3h-2.4v4.8h2.4c3 0 4-.9 4-2.5 0-1.7-1-2.3-4-2.3m0-7.8h-2.4v4.3h2.4c2.5 0 3.3-.7 3.3-2.1 0-1.4-.6-2.2-3.3-2.2m4 16.1h-14.6v-19.6h13.5c6 0 8.6 1.7 8.6 5 0 3-2 4-4.7 4.6 2.6.3 5.5 1.3 5.5 4.6 0 4.5-4.6 5.4-8.3 5.4m22.4.5c-6.6 0-11.9-1.4-11.9-8.7V119h8.1v10.7c0 3.8 1.2 5 3.8 5 2.4 0 3.9-1.2 3.9-5V119h8v11.4c0 7-5.5 8.7-12 8.7m26.7-16.3h-3v4.9h3c2 0 3.3-.6 3.3-2.5 0-1.7-1.2-2.4-3.3-2.4m3.8 15.8l-.7-4.4c-.3-2.4-1-2.8-3.6-2.8h-2.6v7.2h-8.3v-19.6h14.1c5.4 0 8.8 1.7 8.8 5.7 0 2.9-2 4.2-4.5 4.5 2.7.3 3.8 1.6 4 3.2l.9 4.5.3 1.7h-8.4zm22.7.5c-10 0-13-4.2-13-10.3 0-6.9 4.6-10.4 13.8-10.4 7.2 0 12.2 1.7 12.6 6.5h-8.5c-.4-1.8-2-2.3-4-2.3-3.6 0-5.4 2.3-5.4 6.2 0 3.8 1.6 6.2 5.7 6.2 1.6 0 3-.3 3.9-.6v-3.1h-4.9v-4h13.2v10.3c-1.5.4-8.5 1.5-13.4 1.5m-38.5 28.1v-10.4h-13v4h4.7v3.1c-.8.4-2.2.6-3.8.6-4 0-5.7-2.4-5.7-6.2 0-3.8 1.8-6.2 5.4-6.2 1.9 0 3.6.5 4 2.4h8.4c-.4-4.8-5.3-6.5-12.4-6.5-9.2 0-13.8 3.5-13.8 10.3 0 6.1 3 10.4 13 10.4 4.8 0 11.7-1.1 13.2-1.5zm-28.3 1v-19.7h-7v14l-7-14h-12V168h7v-14l7 14zm-28.7-8.2v-11.5h-8v10.8c0 3.7-1.4 5-3.8 5-2.5 0-3.7-1.3-3.7-5v-10.8h-8v11.5c0 7.2 5.2 8.7 11.7 8.7 6.4 0 11.8-1.8 11.8-8.7zm-25.9-7v-4.5H82.7v4.5h6.5V168h8.3v-15zm-24.2-.4v-4.1H61.4V168h8.2v-7.4h9.6v-4h-9.6v-4.1zm-22 15.5v-19.6h-8.3V168zm-11-15v-4.6H25.3v4.5h6.5V168h8.3v-15zm-23 9.1c0-3.8-3.2-4.7-6.6-5.5-1.7-.5-5.2-1.2-5.2-1.2-2-.5-3.1-.8-3.1-2 0-1.3 1.2-1.9 2.9-1.9 2 0 3 .7 3.2 2.7h8.2c-.4-4.1-3.2-6.3-11.4-6.3-7.4 0-11.5 2.5-11.5 6.3 0 3.5 2.9 4.3 6 5l5.3 1.5c1 .2 3.5.7 3.5 2.2 0 1.6-1.6 2-3.4 2-2.3 0-3.2-1-3.3-3H0c0 3.6 1.7 6.7 11.7 6.7 9 0 12-2.7 12-6.5z" fill="#231f20"/>
</svg>
