<svg xmlns="http://www.w3.org/2000/svg" width="158.74" height="151.18" viewBox="0 0 119.06 113.39">
  <defs>
    <clipPath id="a">
      <path d="M34 18h8v12h-8zm0 0"/>
    </clipPath>
    <clipPath id="b">
      <path d="M9.25 40.68l15.77 56.36 32.14-27.6-17.12-58.21zm0 0"/>
    </clipPath>
    <clipPath id="c">
      <path d="M40 39h7v11h-7zm0 0"/>
    </clipPath>
    <clipPath id="d">
      <path d="M9.25 40.68l15.77 56.36 32.14-27.6-17.12-58.21zm0 0"/>
    </clipPath>
    <clipPath id="e">
      <path d="M46 60h8v10h-8zm0 0"/>
    </clipPath>
    <clipPath id="f">
      <path d="M9.25 40.68l15.77 56.36 32.14-27.6-17.12-58.21zm0 0"/>
    </clipPath>
    <clipPath id="g">
      <path d="M30 11h16v27H30zm0 0"/>
    </clipPath>
    <clipPath id="h">
      <path d="M9.25 40.68l15.77 56.36 32.14-27.6-17.12-58.21zm0 0"/>
    </clipPath>
    <clipPath id="i">
      <path d="M36 31h16v27H36zm0 0"/>
    </clipPath>
    <clipPath id="j">
      <path d="M9.25 40.68l15.77 56.36 32.14-27.6-17.12-58.21zm0 0"/>
    </clipPath>
    <clipPath id="k">
      <path d="M42 52h16v27H42zm0 0"/>
    </clipPath>
    <clipPath id="l">
      <path d="M9.25 40.68l15.77 56.36 32.14-27.6-17.12-58.21zm0 0"/>
    </clipPath>
    <clipPath id="m">
      <path d="M10 24h33v69H10zm0 0"/>
    </clipPath>
    <clipPath id="n">
      <path d="M9.33 40.6L25.1 96.98l32.06-27.53-17.12-58.21zm0 0"/>
    </clipPath>
    <clipPath id="o">
      <path d="M40 11h58v18H40zm0 0"/>
    </clipPath>
    <clipPath id="p">
      <path d="M40.04 11.23l17.12 58.21 52.38-1.3-17.63-56.3zm0 0"/>
    </clipPath>
    <clipPath id="q">
      <path d="M45 31h59v18H45zm0 0"/>
    </clipPath>
    <clipPath id="r">
      <path d="M40.04 11.23l17.12 58.21 52.38-1.3-17.63-56.3zm0 0"/>
    </clipPath>
    <clipPath id="s">
      <path d="M51 51h59v19H51zm0 0"/>
    </clipPath>
    <clipPath id="t">
      <path d="M40.04 11.23l17.12 58.21 52.38-1.3-17.63-56.3zm0 0"/>
    </clipPath>
    <clipPath id="u">
      <path d="M56 55h49v10H56zm0 0"/>
    </clipPath>
    <clipPath id="v">
      <path d="M40.04 11.23l17.12 58.21 52.38-1.3-17.63-56.3zm0 0"/>
    </clipPath>
    <clipPath id="w">
      <path d="M50 35h23v9H50zm0 0"/>
    </clipPath>
    <clipPath id="x">
      <path d="M40.04 11.23l17.12 58.21 52.38-1.3-17.63-56.3zm0 0"/>
    </clipPath>
    <clipPath id="y">
      <path d="M44 15h45v9H44zm0 0"/>
    </clipPath>
    <clipPath id="z">
      <path d="M40.04 11.23l17.12 58.21 52.38-1.3-17.63-56.3zm0 0"/>
    </clipPath>
  </defs>
  <path d="M25.02 97.04L9.25 40.68l30.79-29.45 17.12 58.21zm0 0" fill="transparent"/>
  <g clip-path="url(#a)">
    <g clip-path="url(#b)">
      <path d="M39.03 24.35a.54.54 0 01-.26.15.32.32 0 01-.25-.05.72.72 0 01-.2-.25 2.07 2.07 0 01-.18-.44l-.3-1.03 1.86-1.75L40 22a2.85 2.85 0 01.1.96 1.05 1.05 0 01-.34.7zm.92-5.66l-5.6 5.3a.58.58 0 00-.09.1.42.42 0 00-.05.12v.13c0 .04 0 .09.02.14l.3 1.02c0 .06.03.1.05.13.01.03.04.05.06.05.02 0 .05 0 .08-.02a.4.4 0 00.1-.07l2.1-1.98.28.96-1.8 3.02-.07.14-.05.13a.37.37 0 00-.01.12c0 .05 0 .1.02.14l.32 1.11.04.11.06.07c.02.02.04.02.06.02a.1.1 0 00.07-.04l.02-.02.01-.01.02-.02.01-.03 1.94-3.33c.12.16.25.28.38.35.13.07.26.1.39.1s.26-.04.39-.1c.13-.06.25-.16.37-.27l.99-.93c.18-.17.34-.37.48-.62.13-.25.24-.54.3-.87.07-.34.1-.71.06-1.13-.02-.42-.1-.89-.26-1.4l-.68-2.33-.05-.12a.14.14 0 00-.07-.06l-.08.01a.38.38 0 00-.1.08" fill="transparent"/>
    </g>
  </g>
  <g clip-path="url(#c)">
    <g clip-path="url(#d)">
      <path d="M46.18 39.92L40.5 45.1a.54.54 0 00-.09.1l-.05.12a.39.39 0 00-.02.11l.02.13 1.1 3.74c0 .05.02.1.04.13l.06.06a.1.1 0 00.08 0 .3.3 0 00.1-.06l.54-.5a.34.34 0 00.09-.1.32.32 0 00.05-.1v-.14l-.03-.14-.69-2.37 4.97-4.51a.8.8 0 00.1-.1.41.41 0 00.06-.12v-.12c0-.05 0-.1-.02-.15l-.31-1.06a.45.45 0 00-.05-.12.13.13 0 00-.07-.06h-.08a.34.34 0 00-.1.08" fill="transparent"/>
    </g>
  </g>
  <g clip-path="url(#e)">
    <g clip-path="url(#f)">
      <path d="M47.9 63.17l-.61.54c-.18.16-.35.36-.49.6a2.9 2.9 0 00-.3.86c-.07.33-.1.7-.07 1.12a6.52 6.52 0 00.76 2.6c.18.3.36.48.56.58.19.1.38.12.58.08.2-.05.38-.16.56-.32l.79-.68a2.59 2.59 0 00.67-1.06 4.76 4.76 0 00.2-1.3l.04-2.6.03-.24a1.14 1.14 0 01.37-.7l.28-.24a.6.6 0 01.26-.15c.08-.02.16 0 .23.04.08.05.14.13.2.24a2.91 2.91 0 01.27.93c.02.15.02.3 0 .42a1.02 1.02 0 01-.35.63l-.36.31a.73.73 0 00-.09.1.34.34 0 00-.07.23l.03.15.3 1.03.05.13.07.06.08-.01a.3.3 0 00.1-.07l.45-.38c.18-.16.35-.36.5-.6.13-.23.25-.5.32-.83.07-.32.1-.69.07-1.1a6.58 6.58 0 00-.75-2.58 1.38 1.38 0 00-.56-.54.8.8 0 00-.58-.03c-.19.06-.38.18-.56.34l-.61.53c-.13.11-.25.25-.35.4a2.82 2.82 0 00-.42 1.07c-.04.19-.06.38-.07.56l-.07 2.37a7.84 7.84 0 01-.08.85c-.03.13-.07.24-.12.35-.05.1-.12.2-.2.28l-.44.38a.56.56 0 01-.28.14.33.33 0 01-.24-.06.76.76 0 01-.2-.27 2.62 2.62 0 01-.29-.97 1.7 1.7 0 010-.45c.02-.13.06-.26.12-.37a.92.92 0 01.22-.29l.53-.46a.53.53 0 00.16-.22.33.33 0 00.01-.13c0-.04 0-.09-.02-.14l-.3-1.03a.82.82 0 00-.05-.13c-.03-.03-.05-.05-.07-.05h-.09a.33.33 0 00-.11.08" fill="transparent"/>
    </g>
  </g>
  <path d="M109.54 68.14L91.9 11.84l-51.87-.61 17.12 58.21zm0 0" fill="transparent"/>
  <path d="M109.54 68.14L76.29 94.9l-51.27 2.13 32.14-27.6zm0 0" fill="#f9c7b3"/>
  <path d="M57.16 69.44l-32.14 27.6 51.27-2.13 33.25-26.77zm0 0" fill="#f9c7b3"/>
  <g clip-path="url(#g)">
    <g clip-path="url(#h)">
      <path d="M39.7 20.98l-1.86 1.75.3 1.03c.05.17.11.32.18.44.06.11.13.2.2.25.08.05.16.07.25.05a.54.54 0 00.26-.15l.74-.7a1 1 0 00.22-.3c.06-.12.1-.25.12-.39A2.85 2.85 0 0040 22zm-4.88 4.6a.5.5 0 01-.1.08.12.12 0 01-.08.02.11.11 0 01-.06-.05.5.5 0 01-.06-.13l-.29-1.02a.52.52 0 01-.02-.27.48.48 0 01.15-.22l5.6-5.3a.38.38 0 01.1-.08c.03-.01.06-.02.08 0 .02 0 .05.02.07.05l.05.12.68 2.34c.15.5.24.97.27 1.4.02.41 0 .78-.07 1.12a2.72 2.72 0 01-.78 1.5l-.99.92c-.12.11-.24.2-.37.27a.9.9 0 01-.4.1.81.81 0 01-.38-.1 1.28 1.28 0 01-.38-.35l-1.94 3.33-.01.03s-.02 0-.02.02l-.01.02-.02.01a.12.12 0 01-.07.04c-.02 0-.04 0-.06-.02l-.06-.07a.63.63 0 01-.04-.11l-.32-1.1a.64.64 0 01-.02-.15l.01-.12c0-.05.03-.09.05-.13l.07-.13 1.8-3.03-.28-.96zm5.25-14.5l-9.69 9.27 4.85 16.76L45.04 28zm0 0" fill="#231f20"/>
    </g>
  </g>
  <g clip-path="url(#i)">
    <g clip-path="url(#j)">
      <path d="M41.73 49.43a.24.24 0 01-.1.06.1.1 0 01-.08 0 .18.18 0 01-.06-.06.82.82 0 01-.05-.13l-1.09-3.74a.46.46 0 01-.02-.13l.02-.11a.43.43 0 01.05-.12.54.54 0 01.1-.1l5.68-5.18a.36.36 0 01.1-.07c.04-.02.06-.02.1-.01l.06.06.05.12.31 1.06.03.15c0 .04 0 .09-.02.12a.3.3 0 01-.05.11.8.8 0 01-.1.1l-4.97 4.52.7 2.37a.67.67 0 01.02.27l-.05.12a.34.34 0 01-.09.1zm4.28-17.98l-9.83 9.07 4.92 17 9.96-8.9zm0 0" fill="#231f20"/>
    </g>
  </g>
  <g clip-path="url(#k)">
    <g clip-path="url(#l)">
      <path d="M48.9 69.23c-.19.15-.38.27-.57.31-.2.05-.4.03-.58-.07-.2-.1-.39-.28-.56-.57a6.52 6.52 0 01-.75-2.6c-.04-.43-.01-.8.05-1.13.07-.33.18-.62.31-.86.14-.24.3-.44.49-.6l.62-.54a.34.34 0 01.11-.08.11.11 0 01.09 0c.02 0 .04.02.06.05.03.04.04.07.06.13l.3 1.03.02.14a.33.33 0 01-.07.24.52.52 0 01-.1.1l-.53.47a.92.92 0 00-.23.3c-.05.1-.09.23-.1.36a2.79 2.79 0 00.28 1.42c.06.12.13.21.2.27.08.05.16.08.24.06a.56.56 0 00.28-.14l.43-.38a.98.98 0 00.21-.28c.05-.1.1-.22.12-.35.03-.13.04-.27.06-.41l.02-.44.08-2.37a3.05 3.05 0 01.22-1.11c.07-.18.16-.36.26-.51.1-.16.22-.3.35-.41l.6-.53c.19-.16.38-.28.57-.34a.8.8 0 01.58.03c.2.09.38.26.56.54a6.58 6.58 0 01.75 2.58c.03.41 0 .78-.07 1.1-.07.32-.19.6-.33.84-.14.23-.3.43-.5.59l-.43.38a.37.37 0 01-.1.07c-.04.01-.06.02-.09 0a.13.13 0 01-.07-.05.49.49 0 01-.05-.13l-.3-1.02a.88.88 0 01-.03-.16c0-.04 0-.09.02-.12a.39.39 0 01.05-.11.55.55 0 01.1-.1l.35-.31a1.04 1.04 0 00.35-.63c.02-.13.02-.27 0-.43a2.95 2.95 0 00-.27-.92.65.65 0 00-.2-.24.28.28 0 00-.23-.04.59.59 0 00-.26.15l-.28.24c-.08.07-.14.15-.2.22l-.11.24-.06.24c-.02.08-.02.17-.03.25l-.04 2.58a5.43 5.43 0 01-.2 1.31c-.07.2-.16.4-.27.58-.1.18-.24.34-.4.48zm3.18-17.14l-9.99 8.86 5 17.26 10.12-8.69zm0 0" fill="#231f20"/>
    </g>
  </g>
  <g clip-path="url(#m)">
    <g clip-path="url(#n)">
      <path d="M27.73 79.96l-1.87 1.64c-.46.4-.9.86-1.3 1.35-.4.5-.76 1.03-1.05 1.6a6.82 6.82 0 00-.82 3.8l.76 2.75c.28.48.62.8 1 .98.37.18.78.22 1.21.15.43-.06.9-.24 1.36-.5.47-.26.94-.6 1.41-1.02l2.36-2.03a10.36 10.36 0 002.2-2.69 9.07 9.07 0 00.98-2.72l1.01-5.07a3.3 3.3 0 01.4-1.04 5.53 5.53 0 011.01-1.18l.84-.74c.3-.25.56-.44.8-.56.23-.11.44-.16.63-.14.18.02.34.1.47.26.14.16.25.38.33.67a2.54 2.54 0 01-.05 1.7c-.1.28-.25.55-.44.81-.2.26-.44.52-.73.77l-1.1.96a2.86 2.86 0 00-.49.54.72.72 0 00-.08.26c-.01.08 0 .17.02.27l.49 1.7c.03.09.06.16.1.2.05.04.11.05.18.05a.68.68 0 00.24-.1c.09-.06.19-.13.3-.23l1.37-1.18c.56-.49 1.1-1.04 1.58-1.63a9.1 9.1 0 001.2-1.95 6.74 6.74 0 00.33-4.7 3.97 3.97 0 00-1-1.83c-.4-.38-.86-.53-1.36-.52-.5.02-1.05.2-1.6.51-.56.3-1.14.73-1.7 1.23l-1.86 1.63a9.45 9.45 0 00-1.98 2.38c-.26.42-.47.84-.64 1.24-.17.4-.29.78-.36 1.13l-1 4.68-.2.87c-.09.29-.18.57-.3.84a4.32 4.32 0 01-1.1 1.54l-1.33 1.15c-.29.25-.55.42-.79.53-.23.1-.45.13-.63.1a.83.83 0 01-.48-.32 2.1 2.1 0 01-.33-.7 2.82 2.82 0 01.46-2.58c.19-.28.43-.53.71-.79l1.6-1.4c.12-.1.22-.2.31-.3.08-.1.15-.18.19-.27a.65.65 0 00.05-.51l-.48-1.7a.4.4 0 00-.1-.2.19.19 0 00-.16-.04.64.64 0 00-.25.1c-.09.06-.2.14-.32.25m9.4-21.22L19.7 74.37c-.11.1-.2.2-.28.3-.08.09-.14.18-.18.26a.73.73 0 00-.04.52L21 81.93c.03.1.06.16.1.21.04.05.09.07.15.07s.13-.03.22-.08l.3-.23 1.63-1.44c.1-.1.2-.18.27-.27.07-.09.12-.17.15-.26a.8.8 0 00.03-.52l-1.2-4.28 5.39-4.81 1.08 3.8c.02.1.06.17.1.21.05.05.1.07.17.06.06 0 .13-.03.22-.08s.18-.12.3-.22l1.55-1.38c.11-.1.2-.19.27-.28.08-.09.13-.17.17-.26a.77.77 0 00.02-.53l-1.08-3.81 4.8-4.3 1.2 4.18c.03.09.06.15.1.2.05.03.1.05.17.05.06-.01.14-.04.23-.1.09-.04.18-.12.3-.22l1.7-1.5c.11-.1.2-.2.28-.3.08-.08.13-.17.17-.25a.7.7 0 00.06-.26c0-.08 0-.17-.03-.26l-1.86-6.43a.43.43 0 00-.1-.2.2.2 0 00-.17-.05.58.58 0 00-.23.1c-.1.06-.2.14-.32.25m-1.87-6.49L17.91 68a2.41 2.41 0 00-.46.57.7.7 0 00-.05.5l.49 1.74c.02.1.06.15.1.2.04.03.1.05.15.04a.61.61 0 00.22-.1c.09-.06.2-.15.3-.25L36.06 55c.12-.1.22-.21.3-.3l.2-.27a.72.72 0 00.07-.26.7.7 0 00-.03-.26l-.51-1.77c-.03-.1-.06-.16-.1-.2a.2.2 0 00-.17-.04.64.64 0 00-.23.1c-.1.06-.2.14-.32.25m-3.24-11.5l-1.67 1.55c-.11.1-.2.2-.28.3-.08.1-.13.19-.17.27a.67.67 0 00-.07.27c0 .09 0 .18.03.27l.72 2.53-15 13.82c-.1.1-.2.2-.27.3-.08.08-.14.17-.18.26a.8.8 0 00-.07.26c0 .08 0 .17.03.26l.47 1.7c.03.09.06.15.1.18.04.04.1.06.16.05.06-.01.13-.05.22-.1l.3-.24 15.02-13.79.73 2.54c.02.09.06.15.1.2.05.03.1.05.16.04a.6.6 0 00.23-.1c.09-.05.18-.12.3-.23l1.68-1.53c.11-.1.2-.2.27-.29.08-.09.13-.18.17-.26a.7.7 0 00.06-.26c0-.08 0-.17-.03-.25l-2.25-7.8a.51.51 0 00-.1-.2.18.18 0 00-.15-.06.44.44 0 00-.22.08c-.08.05-.18.13-.29.23m-1.6-5.3L13.29 51.5c-.11.1-.2.21-.28.3-.08.1-.13.19-.17.27a.66.66 0 00-.07.26c-.01.09 0 .17.02.26l.48 1.71c.02.1.06.15.1.2.04.03.1.04.15.03a.54.54 0 00.22-.1l.3-.25 17.17-16a3.04 3.04 0 00.49-.58.75.75 0 00.08-.26.8.8 0 00-.03-.27l-.5-1.74a.4.4 0 00-.1-.2c-.05-.03-.1-.04-.17-.04a.7.7 0 00-.24.1c-.09.07-.19.15-.31.27m-6.76-8.68l-10.43 9.98c-.45.43-.88.9-1.27 1.4-.4.5-.74 1.03-1.02 1.6a7.99 7.99 0 00-.66 1.78c-.14.61-.2 1.26-.16 1.93l.75 2.68c.27.46.6.74.95.9.36.14.76.15 1.17.05.42-.1.86-.32 1.3-.61.46-.3.91-.67 1.37-1.1l1.85-1.74.28-.3c.07-.08.13-.17.16-.25a.65.65 0 00.07-.25c0-.08 0-.16-.03-.24l-.46-1.64a.45.45 0 00-.1-.2.16.16 0 00-.15-.05.53.53 0 00-.21.1l-.3.25-1.5 1.41c-.26.26-.51.45-.74.57-.23.13-.43.18-.6.17a.66.66 0 01-.47-.24 1.65 1.65 0 01-.31-.65 2.64 2.64 0 01.05-1.68c.1-.27.24-.54.43-.8.18-.27.41-.53.68-.79l9.75-9.28c.29-.27.54-.47.77-.6.23-.13.44-.2.62-.19.19.01.35.09.48.24s.24.37.33.66a2.84 2.84 0 01-.06 1.7c-.1.29-.25.56-.44.84-.19.27-.42.54-.7.8l-1.15 1.09a2.87 2.87 0 00-.47.58.73.73 0 00-.05.53l.47 1.64c.02.09.06.15.1.18.04.04.1.05.16.04a.6.6 0 00.23-.11c.09-.06.19-.15.3-.26l1.5-1.42c.56-.51 1.08-1.08 1.54-1.7a9.6 9.6 0 001.16-2 6.86 6.86 0 00.3-4.71 3.7 3.7 0 00-.97-1.75 1.7 1.7 0 00-1.33-.45c-.48.04-1.01.25-1.55.58a9.9 9.9 0 00-1.64 1.3" fill="#f9c7b3"/>
    </g>
  </g>
  <g clip-path="url(#o)">
    <g clip-path="url(#p)">
      <path d="M56.84 19.53H56l.85 2.83h.89c.16 0 .3-.01.4-.05.1-.03.18-.08.23-.15a.42.42 0 00.08-.24c.01-.1 0-.2-.04-.32l-.38-1.3a1.07 1.07 0 00-.39-.55 1.2 1.2 0 00-.35-.16 2.02 2.02 0 00-.46-.06m-10.5-3.46h-.85l.9 3.05h.86c.16 0 .3 0 .4-.05.1-.03.19-.08.24-.15a.45.45 0 00.09-.24c0-.1 0-.2-.04-.33l-.44-1.5a1.3 1.3 0 00-.15-.31.95.95 0 00-.24-.25c-.1-.06-.2-.12-.33-.16a1.5 1.5 0 00-.44-.06m9.34.07H55l.78 2.61h.7c.17 0 .3-.02.4-.05.1-.04.17-.1.22-.16a.44.44 0 00.08-.25c0-.1-.02-.2-.05-.3l-.33-1.1a1.3 1.3 0 00-.14-.32.94.94 0 00-.55-.37 1.73 1.73 0 00-.43-.06m-8.83 7c-.04 0-.06 0-.09-.02a.22.22 0 01-.06-.03.32.32 0 01-.05-.07l-.04-.1-2.21-7.49a.36.36 0 01-.02-.1.1.1 0 010-.06.08.08 0 01.05-.04H46.1c.35.01.65.06.9.14a2.1 2.1 0 011.13.86c.12.2.2.4.27.61l.46 1.55c.05.16.08.3.09.45 0 .14 0 .28-.04.4a.86.86 0 01-.52.58l1.85 3.12.03.09a.1.1 0 010 .06.1.1 0 01-.05.05.26.26 0 01-.08.01h-.6a.3.3 0 01-.1-.01.37.37 0 01-.06-.04l-.06-.07-.06-.1-1.7-2.95-.91-.01.87 2.96c.02.04.02.07.02.1v.06l-.05.04a.22.22 0 01-.08.01zm5.1.02l-.09-.01a.16.16 0 01-.06-.04.3.3 0 01-.05-.06l-.04-.1-2.22-7.47a.36.36 0 01-.02-.1l.01-.06c.01-.02.02-.03.05-.04a.2.2 0 01.08-.01l2.62.03a.3.3 0 01.08 0 .2.2 0 01.06.04.2.2 0 01.06.06l.03.1.14.45c0 .03.02.06.01.08l-.01.06a.08.08 0 01-.05.03.23.23 0 01-.08 0l-1.89-.01.75 2.51 1.75.01c.03 0 .06 0 .09.02l.06.03.06.07.03.09.13.42.02.1c0 .02 0 .04-.02.05a.1.1 0 01-.04.04.24.24 0 01-.09.01l-1.74-.01.85 2.87 1.97.02a.27.27 0 01.15.03l.05.06a.6.6 0 01.04.1l.13.45c.02.04.02.07.02.09a.1.1 0 01-.01.06.08.08 0 01-.05.03.23.23 0 01-.08.01zm4.42.02l-.08-.01a.18.18 0 01-.07-.04l-.04-.06a.9.9 0 01-.04-.1l-2.23-7.45a.39.39 0 01-.02-.1l.01-.06c.01-.02.02-.03.05-.04h1.49c.34 0 .63.05.89.13.25.07.46.18.64.3a2.07 2.07 0 01.7 1.04l.34 1.13c.04.14.07.26.08.38 0 .12 0 .23-.04.33a.64.64 0 01-.14.26.83.83 0 01-.26.18 1.7 1.7 0 011.27 1.22l.43 1.4c.06.2.1.4.08.59 0 .18-.05.34-.15.47a.96.96 0 01-.46.32 2.4 2.4 0 01-.83.11zm5.03.02a.3.3 0 01-.08-.01.11.11 0 01-.07-.04l-.04-.06a.46.46 0 01-.04-.1l-2.23-7.43a.55.55 0 01-.03-.1c0-.02 0-.04.02-.06l.03-.03.09-.01 2.59.02.07.01c.03 0 .05.02.07.04l.05.05.04.1.14.45.01.08c0 .03 0 .05-.02.06 0 .01-.02.03-.04.03l-.08.01-1.86-.01.75 2.5h1.73l.08.01.07.04.05.06.04.1.13.41.01.1-.01.06-.05.03a.22.22 0 01-.07.01h-1.73l.86 2.85 1.94.01a.3.3 0 01.09.01l.06.03.05.06.03.09.14.45a.3.3 0 01.02.1.1.1 0 01-.01.05c-.01.02-.03.03-.05.03l-.08.01zm4.14.02l-.07-.01a.5.5 0 01-.06-.04.28.28 0 01-.04-.07.39.39 0 01-.04-.09l-2.24-7.4-.02-.1.01-.07c.01-.01.02-.03.04-.03a.4.4 0 01.08-.01h.56l.08.01a.2.2 0 01.06.04c.02.01.04.04.05.07.02.02.03.05.04.09l2.05 6.78 1.78.01.09.01c.03 0 .05.01.07.03l.05.06.04.09.13.45.02.09c0 .03 0 .05-.02.06l-.04.03a.22.22 0 01-.08.01zm3.79.01h-.07a.15.15 0 01-.06-.05.2.2 0 01-.05-.06.72.72 0 01-.03-.1l-2.25-7.38a.65.65 0 01-.02-.1l.01-.06.04-.04a.4.4 0 01.08 0h.64a.17.17 0 01.1.1c.03.03.04.07.05.1l2.05 6.77h1.79l.08.02.06.03c.02 0 .04.03.05.05l.04.1.13.44.02.1-.01.06-.05.03h-.07zm3.9.02h-.09a.2.2 0 01-.06-.04.2.2 0 01-.05-.07.39.39 0 01-.04-.1l-2.24-7.37a.65.65 0 01-.03-.1l.01-.06.04-.03.08-.01h.55l.08.01a.2.2 0 01.06.04.2.2 0 01.05.07c.02.02.03.05.04.1l2.25 7.36.02.1v.06l-.05.04h-.08zm11.17-4.43l1.72.02-.94-3.04-.02-.09.01-.06a.09.09 0 01.05-.04H85.83l.08.01c.03 0 .05.02.06.04a.2.2 0 01.05.06l.04.1 2.27 7.3.02.1a.1.1 0 01-.01.05c0 .02-.02.03-.04.04H87.7a.3.3 0 01-.09 0 .16.16 0 01-.06-.04.29.29 0 01-.06-.06l-.03-.1-1.07-3.44-1.72-.01 1.07 3.44.02.1v.06l-.05.04a.22.22 0 01-.08 0H85a.2.2 0 01-.06-.04.29.29 0 01-.05-.06.46.46 0 01-.03-.1l-2.27-7.32a.33.33 0 01-.02-.1.1.1 0 01.01-.05l.04-.04.08-.01h.53l.09.02a.2.2 0 01.06.03l.05.07.03.09zm-7.53 3.73c.16 0 .29-.02.4-.05.1-.04.17-.09.22-.16a.4.4 0 00.08-.23 1 1 0 00-.05-.32l-.26-.86a1.42 1.42 0 00-.14-.32l-.2-.26a2 2 0 00-.53-.36l-1.53-.82a2.57 2.57 0 01-.66-.53 2.52 2.52 0 01-.46-.85l-.26-.83c-.06-.21-.1-.42-.1-.6 0-.19.03-.36.12-.5a.83.83 0 01.42-.33 2.67 2.67 0 011.64.02c.24.08.45.2.63.34.17.14.31.3.43.5.11.18.2.39.27.6l.2.67c.02.04.02.06.02.09l-.01.06a.1.1 0 01-.05.03.22.22 0 01-.08.01h-.52l-.08-.01a.16.16 0 01-.06-.04.17.17 0 01-.05-.06.72.72 0 01-.03-.09l-.21-.68a1.08 1.08 0 00-.14-.3.93.93 0 00-.52-.39 1.42 1.42 0 00-.78 0 .4.4 0 00-.2.14.4.4 0 00-.08.23c0 .1.02.2.05.3l.18.59a1.75 1.75 0 00.28.55 1.21 1.21 0 00.41.32l1.57.83a3.45 3.45 0 01.73.52 2.34 2.34 0 01.54.92l.34 1.12c.06.22.1.42.1.6-.01.2-.05.36-.15.5a.9.9 0 01-.43.34 2.77 2.77 0 01-1.65 0 2.1 2.1 0 01-.65-.35 2.07 2.07 0 01-.45-.5c-.12-.19-.2-.4-.27-.6l-.25-.8a.29.29 0 01-.01-.1v-.06a.1.1 0 01.06-.04l.07-.01h.52c.03 0 .06 0 .08.02a.2.2 0 01.06.03.3.3 0 01.05.07l.04.09.25.79a1 1 0 00.36.56 1 1 0 00.32.15c.12.04.26.06.42.06m5.04.83c-.33 0-.62-.04-.86-.13-.25-.08-.45-.2-.62-.34a2.07 2.07 0 01-.43-.5c-.11-.18-.2-.39-.27-.6L78.25 17c-.06-.21-.1-.41-.1-.6s.03-.35.12-.5a.82.82 0 01.41-.33 2.82 2.82 0 011.64.02 1.95 1.95 0 011.06.84c.12.18.2.39.26.6l.23.71.02.1c0 .02 0 .04-.02.06 0 .01-.02.03-.04.03a.22.22 0 01-.08.02h-.5l-.1-.02a.22.22 0 01-.06-.04.17.17 0 01-.05-.06.36.36 0 01-.04-.1l-.2-.69a1.34 1.34 0 00-.15-.31.94.94 0 00-.52-.4 1.56 1.56 0 00-.4-.06c-.16 0-.28.02-.38.05a.41.41 0 00-.2.16.43.43 0 00-.07.24c0 .1.02.2.05.3l1.47 4.77c.04.12.08.22.14.32a.91.91 0 00.51.4c.12.03.26.05.41.05.16 0 .28-.02.37-.05a.4.4 0 00.21-.15.41.41 0 00.07-.25c0-.09-.01-.2-.05-.3l-.26-.86-.02-.09v-.06c.02-.01.03-.03.05-.03a.15.15 0 01.08-.02h.51a.2.2 0 01.08.02c.03 0 .05.02.07.03l.05.07.04.08.27.88c.07.2.1.41.1.6 0 .18-.03.36-.12.5a.84.84 0 01-.42.33c-.2.08-.46.13-.78.12m10.06-11.63l-52.05-.61 4.97 16.92 52.2.07zm0 0" fill="#231f20"/>
    </g>
  </g>
  <g clip-path="url(#q)">
    <g clip-path="url(#r)">
      <path d="M52.87 43.6l-.08-.01a.12.12 0 01-.06-.04l-.04-.07a1.22 1.22 0 01-.04-.1l-2.24-7.6a.33.33 0 01-.02-.1v-.07l.05-.04h.08l.57-.01.09.01c.02 0 .04.02.06.04l.05.07c.02.02.03.05.04.1l2.06 6.96 1.83-.01h.09c.03 0 .05.02.06.03l.06.06.03.1.14.45.02.1-.01.06-.05.04a.27.27 0 01-.09 0zm3.91-.03a.3.3 0 01-.08-.02.22.22 0 01-.07-.03l-.05-.07c-.01-.02-.03-.06-.03-.1l-2.26-7.59a.36.36 0 01-.02-.1l.01-.06c0-.02.02-.03.04-.04l.08-.01H55.05l.07.04a.3.3 0 01.05.07l.04.1 2.25 7.59.02.1-.01.06a.1.1 0 01-.04.04.22.22 0 01-.08.01zm4.54-2.45l-1.6-5.4a.25.25 0 01-.02-.08l.01-.06c0-.02.02-.03.05-.04h.08l.46-.01a.3.3 0 01.09 0 .2.2 0 01.06.04l.05.07.04.09 2.26 7.58.02.1-.01.06c0 .01-.02.03-.04.03a.2.2 0 01-.08.02H62.08l-.06-.03a.27.27 0 01-.04-.05l-.05-.06-3.1-4.7-.13-.2a5.57 5.57 0 01-.13-.2l-.12-.2-.1-.2 1.62 5.46.01.09-.01.06c0 .02-.02.03-.05.04a.22.22 0 01-.08 0l-.45.01h-.1a.11.11 0 01-.06-.04.2.2 0 01-.05-.07.72.72 0 01-.04-.09l-2.26-7.6-.02-.1c0-.02 0-.04.02-.05 0-.02.02-.03.04-.04l.08-.01h.55a.3.3 0 01.06 0l.05.03c.02 0 .04.02.05.04l.05.06 3.12 4.72.13.2.12.2.1.17.09.16m2.8-2.02h.15l.46-3.4.02-.07c0-.02.02-.04.04-.06a.15.15 0 01.06-.04l.08-.02h.6l.08.01.06.05.03.06v.08l-.53 3.69 2.98 3.87.04.07a.2.2 0 010 .07c0 .02-.01.03-.03.04a.14.14 0 01-.07.02h-.77l-.07-.05-.07-.06a1.22 1.22 0 00-.07-.08l-2.61-3.42h-.14l1.02 3.43.01.1-.01.06a.1.1 0 01-.05.03.34.34 0 01-.08.02h-.54a.3.3 0 01-.08-.01.15.15 0 01-.07-.04.27.27 0 01-.05-.06 1.22 1.22 0 01-.04-.1l-2.27-7.57a.29.29 0 01-.02-.1c0-.01 0-.03.02-.05 0-.02.02-.03.04-.03l.08-.02h.54l.09.01.07.04a.2.2 0 01.05.06l.03.08zm6.34 3.61c.17 0 .3-.02.4-.06.1-.04.19-.1.24-.16a.48.48 0 00.09-.25c0-.1-.01-.2-.05-.32l-.27-.88a1.35 1.35 0 00-.6-.79 2.86 2.86 0 00-.29-.16l-1.55-.82a2.4 2.4 0 01-1.14-1.4l-.25-.85c-.07-.22-.1-.43-.1-.62 0-.2.03-.36.12-.5a.87.87 0 01.43-.36 2.79 2.79 0 011.67 0 2 2 0 01.64.34c.17.14.32.32.43.5.12.2.2.4.27.62l.21.68.02.1a.1.1 0 01-.02.06.1.1 0 01-.04.03.2.2 0 01-.08.01h-.62a.2.2 0 01-.06-.04.16.16 0 01-.05-.06.27.27 0 01-.03-.1l-.21-.7a1.24 1.24 0 00-.14-.3.91.91 0 00-.53-.4 1.48 1.48 0 00-.8.01.43.43 0 00-.2.16.44.44 0 00-.08.23c0 .1.02.2.05.32l.18.59a2.04 2.04 0 00.29.56 1.26 1.26 0 00.41.33l1.6.83a3.1 3.1 0 01.73.53 2.2 2.2 0 01.55.93l.35 1.15c.06.22.1.43.1.62-.01.19-.06.36-.15.51a.93.93 0 01-.45.35 2.75 2.75 0 01-1.68.02 2.05 2.05 0 01-1.4-1.47l-.24-.82a.2.2 0 01-.01-.1l.01-.06c0-.02.02-.03.04-.04l.08-.01h.61l.07.04.05.07.04.1.24.8c.03.12.09.23.15.33a.9.9 0 00.55.4c.12.03.26.05.42.05m27.67-11.29l-52.23.05 5.05 17.17 52.38-.61zm0 0" fill="#231f20"/>
    </g>
  </g>
  <g clip-path="url(#s)">
    <g clip-path="url(#t)">
      <path d="M79.69 57.27l.06.29.06.38a8.12 8.12 0 01.1.66l.25 2.32 1.27-.03-1.15-2.28a5.9 5.9 0 01-.14-.3l-.18-.4-.16-.37-.11-.27m-4.86-.5h-.87l1.92 6.37.87-.02c.16 0 .3-.03.4-.07.1-.04.18-.1.23-.17a.47.47 0 00.08-.26c0-.1-.01-.21-.05-.33l-1.43-4.72a1.17 1.17 0 00-.39-.6.97.97 0 00-.33-.15 1.48 1.48 0 00-.43-.06m9.38-.16l-.82.02.95 3.1.82-.02c.16 0 .3-.02.4-.06a.5.5 0 00.23-.16.46.46 0 00.08-.26c0-.1-.01-.2-.05-.33l-.46-1.51a1.02 1.02 0 00-.71-.73 1.57 1.57 0 00-.44-.05m-20.91.27c-.16 0-.3.02-.4.06-.1.04-.17.1-.23.17a.5.5 0 00-.08.26c0 .09 0 .2.04.32l1.49 5c.04.12.08.23.15.32.06.1.14.19.23.26.1.06.2.12.33.15.13.04.27.05.43.05.17 0 .3-.02.4-.07a.5.5 0 00.24-.16.52.52 0 00.08-.26c0-.1 0-.21-.04-.33l-1.5-5a1.18 1.18 0 00-.14-.32.95.95 0 00-.57-.4 1.51 1.51 0 00-.43-.05m5.76 7.28l-.07-.01a.14.14 0 01-.06-.04.17.17 0 01-.05-.07l-.04-.1-2.3-7.67-.01-.1v-.07l.05-.04h.08l.57-.02a.3.3 0 01.09.01l.06.04a.3.3 0 01.05.06l.04.1 2.1 7.03 1.82-.04a.3.3 0 01.09.01l.06.03.05.06c.02.02.03.05.04.1l.14.46a.3.3 0 01.02.1c0 .02 0 .04-.02.06l-.04.03a.23.23 0 01-.09.01zm3.77-.08l-.08-.01a.15.15 0 01-.07-.04.19.19 0 01-.05-.07l-.04-.1-2.3-7.65a.69.69 0 01-.02-.1l.01-.07a.14.14 0 01.04-.04l.08-.01h.56a.3.3 0 01.1 0l.05.04a.2.2 0 01.05.06 1 1 0 01.04.1l2.3 7.66c.02.03.02.07.02.1V64a.14.14 0 01-.05.04.22.22 0 01-.08.01zM75.4 64L75.3 64a.12.12 0 01-.06-.04.32.32 0 01-.05-.07 1.21 1.21 0 01-.03-.09l-2.3-7.65c-.02-.03-.02-.07-.03-.1l.01-.06c0-.02.03-.03.04-.04a.15.15 0 01.08-.01l1.6-.03c.35 0 .65.04.9.12a1.98 1.98 0 011.13.85c.12.2.21.4.28.62l1.45 4.81c.07.22.1.43.1.63s-.05.37-.14.52a.98.98 0 01-.45.37c-.21.09-.48.14-.82.15zm4.44-.1h-.08l-.06-.04a.12.12 0 01-.04-.07l-.02-.08-.81-7.67v-.1l.03-.06a.12.12 0 01.05-.04l.08-.01.59-.01a.3.3 0 01.08.01c.03 0 .05.02.08.03l.06.07a.4.4 0 01.06.09l3.82 7.6.03.09v.06c0 .02-.02.03-.03.04a.2.2 0 01-.08.01l-.55.02a.3.3 0 01-.09-.01l-.07-.04a.3.3 0 01-.06-.06.38.38 0 01-.05-.09l-.96-1.95-1.56.03.23 1.97v.09l-.01.06a.16.16 0 01-.05.04.21.21 0 01-.08.02zm5.03-.1a.18.18 0 01-.15-.05.3.3 0 01-.05-.06c-.01-.03-.03-.06-.03-.1L82.3 56a.69.69 0 01-.02-.1v-.07a.1.1 0 01.05-.04h.07l1.55-.03c.34-.01.63.03.89.11a2 2 0 011.38 1.47l.48 1.57c.05.16.09.31.1.46.01.14 0 .28-.02.4a.9.9 0 01-.17.35.96.96 0 01-.33.26l1.87 3.14.04.09a.1.1 0 010 .07.1.1 0 01-.06.04.2.2 0 01-.07.02l-.6.01-.08-.01a.17.17 0 01-.07-.04.34.34 0 01-.05-.07l-.06-.09-1.73-2.98-.88.02.91 3 .03.1c0 .02 0 .05-.02.06 0 .02-.02.03-.04.04a.22.22 0 01-.07.01zm4.97-.11l-.08-.01a.17.17 0 01-.1-.1.39.39 0 01-.05-.1l-2.33-7.58a.36.36 0 01-.02-.1l.01-.06a.1.1 0 01.04-.04l.08-.01H88c.02 0 .04.02.06.04l.05.06.04.1 2.32 7.57.02.1a.1.1 0 010 .06l-.05.04a.21.21 0 01-.08.02zm11.15-4.88l1.72-.03-.97-3.12c-.02-.03-.02-.06-.02-.1v-.06l.05-.04h.08l.53-.02.09.01c.02 0 .04.02.06.04l.05.06.04.1 2.34 7.5.02.1v.06l-.05.04a.2.2 0 01-.07.01l-.54.01h-.08a.18.18 0 01-.07-.04.3.3 0 01-.05-.07.46.46 0 01-.04-.1l-1.1-3.53-1.72.04 1.1 3.53.02.1v.07l-.05.04a.22.22 0 01-.07.01l-.54.01-.08-.01a.16.16 0 01-.07-.04.19.19 0 01-.04-.06l-.05-.1-2.33-7.52c-.02-.03-.02-.06-.02-.09v-.07c.01-.01.02-.03.04-.03a.2.2 0 01.08-.02h.62a.2.2 0 01.07.04l.04.07c.02.02.03.05.04.1zm-40.77 4.76c.17 0 .3-.03.41-.06.11-.04.19-.1.24-.17a.46.46 0 00.09-.26c0-.1-.01-.21-.05-.33l-.26-.9a1.36 1.36 0 00-.61-.8 2.33 2.33 0 00-.3-.17l-1.58-.83a2.36 2.36 0 01-.96-.94c-.08-.15-.15-.31-.2-.48l-.26-.88a2.4 2.4 0 01-.1-.63c0-.2.04-.38.13-.53a.89.89 0 01.44-.36 2.96 2.96 0 011.71-.03 1.96 1.96 0 011.1.86c.12.2.2.4.28.63l.2.7.02.1-.01.06-.05.04a.26.26 0 01-.08 0l-.55.02-.08-.01a.18.18 0 01-.12-.1.26.26 0 01-.03-.1l-.22-.7a1.16 1.16 0 00-.14-.32.92.92 0 00-.54-.4 1.43 1.43 0 00-.8.01c-.1.04-.18.1-.23.16a.47.47 0 00-.07.25c0 .1 0 .2.04.32l.18.61.13.33c.05.1.1.18.17.25a1.5 1.5 0 00.42.33l1.64.83a3.19 3.19 0 01.74.53 2.12 2.12 0 01.55.96l.36 1.18c.06.22.1.44.09.64a.96.96 0 01-.6.9 2.9 2.9 0 01-1.73.04 2.06 2.06 0 01-1.14-.87c-.12-.2-.21-.4-.28-.63l-.25-.85a.3.3 0 01-.02-.09c0-.03 0-.05.02-.07.01-.02.02-.03.05-.04a.2.2 0 01.07-.01l.55-.02a.3.3 0 01.08.02c.03 0 .05.02.07.03a.3.3 0 01.05.07l.04.1.25.82a1 1 0 00.38.59c.09.07.2.12.32.15.13.04.27.05.44.05m5.31.74a2.8 2.8 0 01-.9-.1 1.97 1.97 0 01-1.13-.87c-.12-.2-.2-.4-.28-.63l-1.5-5.05c-.06-.22-.1-.43-.1-.63.01-.2.06-.37.15-.52.1-.15.25-.28.45-.37a2.93 2.93 0 011.74-.03 2 2 0 011.13.86c.12.2.2.41.28.63l1.5 5.04c.07.22.1.43.1.63s-.05.37-.15.52a.95.95 0 01-.46.38c-.2.09-.48.14-.83.14m27.95-1.44c.16 0 .3-.03.4-.07.1-.04.17-.1.22-.16a.49.49 0 00.08-.26c0-.09-.01-.2-.05-.32l-.27-.88a1.37 1.37 0 00-.6-.79 3.31 3.31 0 00-.29-.16l-1.53-.81a2.03 2.03 0 01-.66-.53 2.45 2.45 0 01-.47-.86l-.27-.86c-.07-.22-.1-.43-.1-.62-.01-.2.02-.37.1-.52a.87.87 0 01.42-.35c.2-.09.46-.14.78-.15.33 0 .62.04.86.12a1.94 1.94 0 011.07.84c.12.2.21.4.28.62l.21.69.02.09-.01.06a.1.1 0 01-.05.04.22.22 0 01-.08 0l-.52.02-.08-.01a.14.14 0 01-.06-.03.16.16 0 01-.05-.07.27.27 0 01-.03-.09l-.22-.7a1.2 1.2 0 00-.14-.3.93.93 0 00-.52-.4 1.35 1.35 0 00-.42-.05 1 1 0 00-.37.06c-.1.04-.16.1-.2.16a.47.47 0 00-.08.25c0 .1.02.2.06.31l.18.6a1.57 1.57 0 00.3.56 1.2 1.2 0 00.4.32l1.59.82a3.45 3.45 0 01.72.52 2.41 2.41 0 01.55.93l.35 1.17a2 2 0 01.1.61 1 1 0 01-.13.52.93.93 0 01-.43.36 2.68 2.68 0 01-1.65.04 1.91 1.91 0 01-1.11-.85c-.12-.19-.21-.4-.28-.61l-.25-.83a.3.3 0 01-.02-.1l.01-.06.05-.04a.14.14 0 01.07-.01l.53-.01h.08l.06.05.05.06.04.1.25.8c.03.13.09.24.14.33a.91.91 0 00.55.4c.12.03.26.05.42.05m5.05.73c-.33 0-.61-.04-.86-.11-.25-.08-.45-.2-.62-.34a1.85 1.85 0 01-.44-.5c-.11-.2-.2-.4-.27-.62l-1.53-4.95c-.06-.22-.1-.42-.1-.61 0-.2.03-.37.1-.52a.84.84 0 01.42-.35 2.75 2.75 0 011.64-.03 1.85 1.85 0 011.07.84c.12.2.2.4.27.62l.23.73.02.1v.06a.1.1 0 01-.06.04.22.22 0 01-.07.01l-.51.01-.09-.01a.2.2 0 01-.07-.03.22.22 0 01-.04-.07l-.05-.1-.22-.71a1.37 1.37 0 00-.14-.32 1 1 0 00-.22-.24.85.85 0 00-.3-.15 1.28 1.28 0 00-.78 0c-.1.05-.16.1-.2.17a.47.47 0 00-.07.25c0 .1.02.2.06.32L97.2 62l.14.31a.94.94 0 00.52.4c.12.04.26.06.41.05a1 1 0 00.37-.06c.1-.04.16-.1.21-.17a.48.48 0 00.06-.25c0-.1-.02-.2-.05-.32l-.27-.88a.4.4 0 01-.02-.08v-.07a.14.14 0 01.05-.04l.08-.02h.6a.2.2 0 01.07.04.3.3 0 01.05.07c.01.02.03.05.03.08l.28.9c.07.22.11.43.11.62 0 .2-.03.37-.12.52a.86.86 0 01-.42.36c-.2.09-.45.14-.78.15m5.86-12.24l-52.42.73 5.13 17.44 52.57-1.31zm0 0" fill="#231f20"/>
    </g>
  </g>
  <g clip-path="url(#u)">
    <g clip-path="url(#v)">
      <path d="M67.23 56.03l-.57.01-.08.01a.08.08 0 00-.04.04l-.01.07c0 .03 0 .06.02.1l2.3 7.68.03.1.05.06.06.04h.07l2.59-.05h.08l.04-.04c.02-.02.02-.04.02-.07 0-.02 0-.05-.02-.09l-.14-.47a.36.36 0 00-.04-.1.15.15 0 00-.05-.05.13.13 0 00-.06-.03h-.09l-1.82.03-2.1-7.03a.46.46 0 00-.04-.1.2.2 0 00-.05-.06.14.14 0 00-.07-.04.25.25 0 00-.08 0m3.73-.07l-.56.01-.08.01a.14.14 0 00-.04.04v.07c0 .02 0 .06.02.1l2.3 7.66.03.1.05.06.07.04a.3.3 0 00.08 0h.56c.04 0 .06 0 .08-.02.02 0 .03-.02.05-.04v-.06c0-.03 0-.06-.02-.1l-2.3-7.66-.04-.1a.2.2 0 00-.05-.06.13.13 0 00-.06-.04h-.09m4.92 7.16l-1.92-6.36.87-.02c.16 0 .3.02.43.06a.97.97 0 01.57.41c.07.1.12.22.15.34l1.43 4.72c.04.12.05.23.05.33s-.03.19-.08.26a.47.47 0 01-.24.17c-.1.04-.23.07-.4.07zm-1.3-7.23l-1.6.03-.09.01a.08.08 0 00-.04.04v.06c0 .03 0 .07.02.1l2.3 7.65.03.1.05.06.06.04.08.01 1.63-.03c.34-.01.6-.06.82-.15.2-.1.35-.22.45-.37.1-.15.14-.33.14-.52 0-.2-.03-.4-.1-.63l-1.45-4.8a2.55 2.55 0 00-.28-.63 1.97 1.97 0 00-1.12-.85 2.97 2.97 0 00-.9-.12m5.58 5l-.25-2.31a5.93 5.93 0 00-.1-.66l-.06-.38-.06-.3.11.28.16.38.18.38.14.3 1.15 2.3zm-.6-5.08l-.58.01-.08.01a.12.12 0 00-.05.04.17.17 0 00-.03.06v.1l.8 7.67.03.08.04.07.06.04h.59l.08-.02a.16.16 0 00.05-.04.17.17 0 00.02-.06v-.1l-.24-1.96 1.56-.03.96 1.95c0 .03.03.06.05.09a.3.3 0 00.06.06l.07.04a.3.3 0 00.09 0h.55l.08-.02a.11.11 0 00.03-.04v-.06a.46.46 0 00-.03-.09l-3.82-7.6a.3.3 0 00-.06-.1.26.26 0 00-.14-.1.3.3 0 00-.08 0m4.77 3.89l-.95-3.1.82-.02c.17 0 .3.02.43.05.13.04.23.1.33.16a1.02 1.02 0 01.39.57l.46 1.51c.04.13.06.23.05.33 0 .1-.03.19-.08.26a.5.5 0 01-.24.16c-.1.04-.23.06-.39.06zm-.38-3.96l-1.55.02-.07.01a.1.1 0 00-.05.04v.07c0 .03 0 .06.02.1l2.31 7.6a.9.9 0 00.04.1.3.3 0 00.05.06l.06.04h.64l.07-.02c.02 0 .04-.02.04-.04.02-.01.02-.04.02-.06a.69.69 0 00-.03-.1l-.91-3 .88-.02 1.73 2.98.06.1.05.06.07.04.09.01.59-.01a.2.2 0 00.07-.02.1.1 0 00.05-.04v-.07a.26.26 0 00-.03-.09l-1.87-3.14a.96.96 0 00.33-.26.9.9 0 00.17-.34c.03-.13.03-.27.02-.41-.01-.15-.05-.3-.1-.46l-.48-1.57a2.45 2.45 0 00-.27-.62 2.01 2.01 0 00-1.11-.85 2.8 2.8 0 00-.9-.11m3.97-.07h-.54l-.08.02a.1.1 0 00-.04.04c0 .02-.01.04 0 .07l.01.1 2.33 7.57c0 .04.02.07.04.1a.17.17 0 00.1.1h.63l.08-.02c.02 0 .03-.02.04-.03l.01-.07c0-.03 0-.06-.02-.1l-2.32-7.57a.46.46 0 00-.04-.1.19.19 0 00-.05-.06.11.11 0 00-.06-.04.3.3 0 00-.09 0m14.45-.25l-.53.01-.08.01a.08.08 0 00-.04.04l-.01.07c0 .03 0 .06.02.1l.97 3.11-1.72.03-.97-3.12a.46.46 0 00-.04-.1.29.29 0 00-.04-.06.15.15 0 00-.07-.04h-.62a.2.2 0 00-.08.02.08.08 0 00-.03.03c-.01.02-.02.04-.01.07 0 .03 0 .06.02.1l2.34 7.51c0 .04.02.07.04.1a.17.17 0 00.1.1l.09.01.54-.01.07-.01.04-.04.01-.07a.69.69 0 00-.02-.1l-1.1-3.53 1.71-.04 1.1 3.54.05.1a.3.3 0 00.05.06c.02.02.04.03.07.03.02.01.05.02.08.01h.54a.2.2 0 00.07-.02c.02 0 .03-.02.04-.04v-.07a.55.55 0 00-.01-.09l-2.34-7.5a.46.46 0 00-.04-.1.16.16 0 00-.05-.06.15.15 0 00-.06-.04h-.08m-44.36.63c-.35 0-.62.06-.82.15a.89.89 0 00-.44.36c-.1.15-.13.33-.13.53s.03.4.1.63l.26.88a2.39 2.39 0 001.16 1.42l1.58.83a2.33 2.33 0 01.55.36 1.51 1.51 0 01.36.6l.26.9c.04.13.06.24.05.34 0 .1-.04.19-.09.26a.52.52 0 01-.24.17c-.1.03-.24.05-.4.06-.18 0-.32-.01-.45-.05a1.06 1.06 0 01-.33-.15 1 1 0 01-.23-.25c-.06-.1-.1-.21-.14-.34l-.25-.82a.46.46 0 00-.04-.1.3.3 0 00-.05-.07.23.23 0 00-.07-.03.3.3 0 00-.08-.02l-.55.02a.2.2 0 00-.07.01c-.03 0-.04.02-.05.04a.13.13 0 00-.02.07c0 .03 0 .06.02.1l.25.84c.07.22.16.43.28.63a1.99 1.99 0 001.14.86 2.9 2.9 0 001.72-.03.96.96 0 00.61-.9c0-.2-.03-.42-.1-.64l-.35-1.18a2.3 2.3 0 00-1.3-1.49l-1.63-.83a1.5 1.5 0 01-.43-.33 1.54 1.54 0 01-.29-.58l-.18-.6a.98.98 0 01-.04-.33c0-.1.02-.18.07-.25a.47.47 0 01.22-.16c.1-.04.23-.06.39-.06s.3.01.43.05a.92.92 0 01.53.4c.07.09.11.2.15.31l.21.72c0 .04.02.07.03.1l.05.05.07.04h.63l.08-.01.05-.04.01-.06c0-.03 0-.06-.02-.1l-.2-.7a2.74 2.74 0 00-.28-.63 2 2 0 00-1.1-.86 2.91 2.91 0 00-.89-.12m7.24 7.37c-.16 0-.3-.01-.43-.05a1.06 1.06 0 01-.33-.15 1.05 1.05 0 01-.38-.58l-1.49-5a1.03 1.03 0 01-.04-.32c0-.1.03-.2.08-.26a.52.52 0 01.23-.17c.1-.04.24-.06.4-.06.16 0 .3.01.43.05a.95.95 0 01.57.4c.06.1.11.21.15.33l1.49 5c.03.1.05.22.04.32a.5.5 0 01-.08.26.5.5 0 01-.24.16c-.1.05-.23.07-.4.07m-2.22-7.45c-.34 0-.61.06-.83.14a.98.98 0 00-.45.37c-.1.15-.14.33-.14.52 0 .2.03.41.1.63l1.5 5.05c.06.23.15.44.27.63a1.9 1.9 0 001.12.86c.27.08.56.12.91.11.35 0 .62-.05.83-.14a.95.95 0 00.46-.38c.1-.15.14-.33.15-.52 0-.2-.03-.41-.1-.63l-1.5-5.04a2.56 2.56 0 00-.28-.63 1.97 1.97 0 00-1.13-.85 2.93 2.93 0 00-.9-.12m28.18-.47c-.32.01-.58.06-.78.15-.2.08-.33.2-.41.35-.09.15-.12.33-.12.52s.04.4.1.62l.27.86a2.45 2.45 0 00.8 1.17c.1.08.22.16.34.22l1.53.8a3.31 3.31 0 01.54.37 1.48 1.48 0 01.35.59l.27.88c.04.12.06.23.05.32 0 .1-.03.19-.08.26a.49.49 0 01-.23.16 1.58 1.58 0 01-.82.02.91.91 0 01-.54-.4c-.05-.1-.1-.2-.14-.32l-.25-.81a.36.36 0 00-.09-.16l-.06-.04a.28.28 0 00-.08-.01h-.53l-.07.02-.05.04c0 .02-.01.04 0 .07v.1l.26.82c.07.22.16.42.28.61a1.91 1.91 0 001.1.84c.25.09.54.13.87.12.33 0 .59-.06.79-.15.2-.08.34-.2.43-.36a1 1 0 00.13-.52 2 2 0 00-.1-.61l-.36-1.17a2.33 2.33 0 00-.54-.93 2.47 2.47 0 00-.72-.52l-1.58-.82a1.31 1.31 0 01-.42-.32 1.57 1.57 0 01-.29-.56l-.18-.6a1.08 1.08 0 01-.06-.31c0-.1.03-.18.07-.25a.44.44 0 01.21-.16 1 1 0 01.37-.05c.15 0 .3 0 .41.04a.93.93 0 01.53.4c.05.08.1.19.14.3l.21.7.04.1a.2.2 0 00.04.06l.07.03.08.01.52-.01.08-.01.05-.04v-.06-.1l-.22-.68a2.62 2.62 0 00-.28-.62 1.85 1.85 0 00-1.07-.84 2.72 2.72 0 00-.86-.12m4.77-.08c-.33.01-.59.06-.78.15-.2.08-.33.2-.41.35-.08.15-.12.33-.12.52s.05.4.11.61l1.53 4.95c.07.21.16.42.27.61a1.91 1.91 0 001.06.85c.25.07.53.11.86.1.33 0 .59-.05.78-.14.2-.09.34-.21.42-.36a.96.96 0 00.12-.52c0-.19-.04-.4-.1-.62l-.29-.9a.26.26 0 00-.03-.08.3.3 0 00-.05-.07.2.2 0 00-.07-.03.29.29 0 00-.09-.01h-.5l-.09.02a.14.14 0 00-.04.04l-.01.07c0 .02 0 .05.02.08l.27.88c.03.11.05.22.05.32s-.02.18-.06.25a.44.44 0 01-.2.17 1 1 0 01-.38.06 1.3 1.3 0 01-.4-.05.94.94 0 01-.31-.15.93.93 0 01-.22-.25c-.05-.1-.1-.2-.14-.32L95.7 57.1a1.15 1.15 0 01-.06-.32c0-.1.02-.18.07-.25.04-.07.1-.12.2-.16a1.28 1.28 0 01.78-.01c.12.03.22.08.3.15a1 1 0 01.22.24c.06.1.1.2.14.32l.23.72.03.1.05.06a.2.2 0 00.07.03l.09.01.5-.01a.2.2 0 00.08-.01.1.1 0 00.05-.04c0-.02.01-.04 0-.07v-.09l-.24-.73a2.78 2.78 0 00-.27-.62 1.85 1.85 0 00-1.07-.84 2.75 2.75 0 00-.86-.12" fill="transparent"/>
    </g>
  </g>
  <g clip-path="url(#w)">
    <g clip-path="url(#x)">
      <path d="M51.1 35.56h-.58l-.08.01a.07.07 0 00-.05.04v.07c0 .02 0 .06.02.1l2.24 7.6.04.1.04.07.06.04a.2.2 0 00.07.01l2.61-.02.09-.01a.1.1 0 00.05-.03.11.11 0 00.01-.07c0-.02 0-.06-.02-.1l-.14-.46a.46.46 0 00-.03-.1.17.17 0 00-.05-.05.13.13 0 00-.07-.03h-.09l-1.83.01-2.06-6.97a.52.52 0 00-.04-.1.23.23 0 00-.05-.06l-.06-.04a.26.26 0 00-.09-.01m3.88-.01h-.57l-.08.01a.08.08 0 00-.04.04l-.01.06.02.1 2.25 7.6.04.1a.3.3 0 00.05.06c.02.02.04.03.07.03l.08.02h.57l.08-.02a.1.1 0 00.04-.04l.01-.06a.69.69 0 00-.02-.1l-2.26-7.6-.03-.09a.3.3 0 00-.05-.07.18.18 0 00-.07-.03.26.26 0 00-.08-.01m5.33-.02h-.46l-.08.01c-.03.01-.04.02-.05.04a.1.1 0 00-.01.06l.01.09 1.61 5.39-.09-.16-.1-.18-.12-.2-.13-.19-3.12-4.73-.05-.05a.25.25 0 00-.05-.04.77.77 0 00-.05-.03H57l-.08.01a.08.08 0 00-.05.04.08.08 0 000 .06v.09l2.27 7.6.04.1a.2.2 0 00.05.06c.02.02.04.03.07.03l.09.01h.45l.08-.01c.03-.01.04-.02.05-.04a.12.12 0 00.01-.06c0-.03 0-.06-.02-.1l-1.62-5.44.11.2.12.2a5.57 5.57 0 00.26.4l3.1 4.69.05.06.04.05.06.02a.2.2 0 00.07.01h.54c.03 0 .06 0 .08-.02.02 0 .03-.02.04-.03l.01-.07c0-.02 0-.05-.02-.09l-2.26-7.59a.44.44 0 00-.04-.08.16.16 0 00-.05-.07.2.2 0 00-.06-.03.3.3 0 00-.09-.01m5.22-.02h-.59l-.08.02a.15.15 0 00-.06.04.14.14 0 00-.04.05l-.02.08-.46 3.4h-.14l-1.03-3.39a.64.64 0 00-.03-.08.2.2 0 00-.05-.06.22.22 0 00-.07-.04.3.3 0 00-.09-.01h-.54c-.03 0-.06 0-.08.02a.07.07 0 00-.04.03l-.02.06.02.09 2.27 7.58.04.1.05.05c.01.02.04.03.06.04a.3.3 0 00.1.01h.53l.08-.02c.03 0 .04-.02.05-.03l.01-.07c0-.02 0-.06-.02-.1l-1.01-3.42h.14l2.61 3.42.07.08.07.06.07.04.1.02.67-.01c.03 0 .05 0 .07-.02.02 0 .03-.02.03-.04v-.07a.32.32 0 00-.05-.07l-2.97-3.87.53-3.7v-.07a.19.19 0 00-.03-.06.15.15 0 00-.06-.05.26.26 0 00-.09 0m2.77-.11c-.34 0-.6.05-.8.13-.2.09-.34.2-.43.35a.98.98 0 00-.13.5c0 .2.04.4.1.63l.26.84a2.55 2.55 0 00.47.87 2.15 2.15 0 00.67.54l1.56.82.28.16a1.58 1.58 0 01.46.46c.06.1.1.2.14.33l.27.88c.04.12.05.23.05.32-.01.1-.04.18-.09.25a.55.55 0 01-.24.16 1.57 1.57 0 01-.83 0 .97.97 0 01-.32-.15 1.06 1.06 0 01-.23-.24c-.05-.1-.1-.2-.14-.33l-.24-.8a.48.48 0 00-.04-.1l-.05-.07-.06-.03a.3.3 0 00-.09-.02h-.53l-.07.02c-.03.01-.04.02-.05.04l-.01.07.01.09.25.82a2.35 2.35 0 00.73 1.12c.19.15.4.27.66.35a2.75 2.75 0 001.68-.02c.2-.08.35-.2.45-.35.09-.15.14-.32.14-.51 0-.2-.03-.4-.1-.62l-.34-1.15a2.17 2.17 0 00-.9-1.23 3.5 3.5 0 00-.38-.23l-1.6-.83a1.4 1.4 0 01-.41-.33 1.37 1.37 0 01-.16-.24c-.05-.1-.1-.2-.13-.32l-.18-.6a1.05 1.05 0 01-.05-.3c0-.1.02-.18.07-.24a.46.46 0 01.22-.16 1.48 1.48 0 01.8 0 .91.91 0 01.52.39c.06.09.1.2.14.3l.2.7.04.1.05.06a.2.2 0 00.06.03l.09.02h.53a.2.2 0 00.08-.02.1.1 0 00.04-.03.1.1 0 00.02-.07c0-.02 0-.05-.02-.09l-.2-.68a2.54 2.54 0 00-.28-.61c-.11-.2-.26-.37-.43-.51-.18-.15-.4-.26-.64-.34a2.79 2.79 0 00-.87-.13" fill="transparent"/>
    </g>
  </g>
  <g clip-path="url(#y)">
    <g clip-path="url(#z)">
      <path d="M46.4 19.12l-.9-3.05h.84c.16 0 .3.02.44.06.13.04.24.1.33.16.1.07.18.16.24.25.06.1.11.2.15.32l.44 1.5c.03.11.05.22.04.32 0 .09-.04.18-.09.24a.52.52 0 01-.24.16c-.1.03-.24.05-.4.05zm-.3-3.88l-1.59-.02-.08.01a.08.08 0 00-.04.04.1.1 0 00-.01.06c0 .03 0 .06.02.1l2.2 7.5.05.1.05.06c.01.02.04.03.06.04h.09l.56.01.08-.01c.02 0 .03-.02.04-.04l.01-.06c0-.03 0-.06-.02-.1l-.87-2.96h.9l1.71 2.97.06.1a.5.5 0 00.06.06l.07.04a.3.3 0 00.08 0l.61.01.08-.01a.1.1 0 00.05-.05.1.1 0 000-.06.25.25 0 00-.03-.09l-1.85-3.12a1 1 0 00.34-.24.9.9 0 00.18-.34c.04-.12.04-.26.04-.4-.01-.14-.04-.29-.1-.45l-.45-1.55a2.07 2.07 0 00-1.4-1.47 2.97 2.97 0 00-.9-.13m6.13.06l-2.62-.03a.2.2 0 00-.08.01.07.07 0 00-.05.04v.06l.01.1 2.22 7.47.04.1a.3.3 0 00.05.06l.06.04.09.01 2.7.01h.08a.1.1 0 00.05-.04v-.06-.1l-.14-.45a.6.6 0 00-.04-.09.25.25 0 00-.05-.06.2.2 0 00-.07-.03h-.08l-1.97-.02-.85-2.87 1.74.01.09-.01a.1.1 0 00.04-.04l.02-.06c0-.02 0-.05-.02-.09l-.13-.42a.39.39 0 00-.03-.1.16.16 0 00-.06-.06l-.06-.04h-.1l-1.74-.02-.75-2.51 1.9.02.07-.01c.02 0 .04-.02.05-.03l.01-.06v-.09l-.15-.45a.36.36 0 00-.03-.1.2.2 0 00-.05-.05l-.07-.04h-.08m4.63 7.06L56 19.52h.83c.18.01.33.03.46.07.14.04.25.09.35.16a1.12 1.12 0 01.38.56l.4 1.3c.03.1.04.21.03.3a.4.4 0 01-.08.25.45.45 0 01-.24.15c-.1.04-.23.06-.39.05zm-1.08-3.61L55 16.14h.68c.16 0 .3.02.43.06a.88.88 0 01.55.38c.06.08.1.2.14.31l.33 1.1c.03.1.05.2.05.3a.42.42 0 01-.3.4c-.1.04-.23.06-.4.06zm-.34-3.43h-1.49a.07.07 0 00-.05.04v.06l.01.1 2.23 7.45c0 .04.02.07.04.1l.04.06.07.04.08.01H58c.35 0 .62-.03.83-.11a.96.96 0 00.46-.32c.1-.13.15-.3.15-.47.01-.18-.02-.38-.08-.59l-.42-1.4a1.7 1.7 0 00-.82-1.04c-.14-.08-.29-.14-.46-.18.1-.05.2-.1.26-.18a.64.64 0 00.14-.26c.03-.1.04-.2.04-.33-.01-.12-.04-.24-.08-.38l-.34-1.13c-.06-.2-.14-.4-.26-.57a1.69 1.69 0 00-.44-.46c-.17-.13-.39-.24-.64-.31a3.3 3.3 0 00-.89-.13m6.2.06l-2.6-.02h-.08a.07.07 0 00-.03.04c-.02.02-.02.04-.02.07l.03.1 2.23 7.42.04.1a.2.2 0 00.1.1h.1l2.66.02h.08l.05-.04a.1.1 0 00.01-.06.3.3 0 00-.02-.09l-.14-.45a.72.72 0 00-.03-.1.19.19 0 00-.05-.05.11.11 0 00-.06-.03l-.09-.01h-1.94l-.86-2.87 1.73.01h.07l.05-.04.01-.07-.01-.09-.13-.42a.72.72 0 00-.04-.09.29.29 0 00-.05-.06.18.18 0 00-.07-.04.26.26 0 00-.08 0l-1.73-.02-.75-2.5 1.86.02h.08l.04-.04a.08.08 0 00.02-.06l-.01-.08-.14-.45a.3.3 0 00-.09-.15.15.15 0 00-.07-.04.25.25 0 00-.07 0m2.12.01h-.56l-.08.01a.05.05 0 00-.04.03l-.01.07.02.1 2.24 7.4a.48.48 0 00.08.16.5.5 0 00.06.04h.07l2.54.02a.4.4 0 00.08 0 .1.1 0 00.04-.04l.02-.06c0-.02 0-.06-.02-.1l-.13-.44a.68.68 0 00-.04-.1.19.19 0 00-.05-.05.17.17 0 00-.07-.03h-.09l-1.78-.02L64 15.61a.52.52 0 00-.04-.1.3.3 0 00-.05-.06.2.2 0 00-.06-.04.25.25 0 00-.08 0m3.78.03h-.64a.05.05 0 00-.04.04v.06c0 .03 0 .06.02.1l2.24 7.39.03.09.05.06.05.04.08.01 2.53.02.07-.01.05-.03.01-.07c0-.02 0-.05-.02-.09l-.13-.44a.42.42 0 00-.04-.1.13.13 0 00-.05-.05.13.13 0 00-.06-.03.3.3 0 00-.08-.01l-1.79-.01-2.05-6.77a.52.52 0 00-.04-.09.2.2 0 00-.05-.07.25.25 0 00-.06-.03.28.28 0 00-.08-.01m3.86.03h-.55l-.08.01a.08.08 0 00-.04.04v.06c0 .02 0 .06.02.1l2.24 7.36.04.1a.2.2 0 00.05.07.2.2 0 00.06.03l.09.01h.62l.04-.04c0-.02.01-.04 0-.07l-.01-.1-2.25-7.36a.42.42 0 00-.04-.1.16.16 0 00-.05-.06.15.15 0 00-.06-.04h-.08m14.43.13h-.62a.1.1 0 00-.04.04l-.01.06c0 .03 0 .06.02.1l.94 3.03-1.72-.02-.94-3.03a.52.52 0 00-.03-.1.16.16 0 00-.05-.06.16.16 0 00-.06-.03.26.26 0 00-.09-.01l-.53-.01-.08.01a.09.09 0 00-.04.04.1.1 0 000 .06l.01.1 2.27 7.3c0 .05.02.08.03.1l.05.07a.2.2 0 00.06.03l.09.01h.61l.04-.04a.1.1 0 00.01-.06c0-.03 0-.06-.02-.1l-1.07-3.44h1.72l1.07 3.45c0 .04.02.07.03.1l.06.06c.01.02.04.03.06.03a.3.3 0 00.09.02h.54l.07-.01c.02 0 .03-.02.04-.04a.1.1 0 000-.06l-.01-.1-2.27-7.3c0-.03-.02-.06-.04-.1a.2.2 0 00-.05-.05.15.15 0 00-.06-.04.28.28 0 00-.08-.01m-11.13-.2c-.33 0-.58.04-.78.12-.2.08-.33.2-.42.33a.94.94 0 00-.12.5c0 .18.04.39.1.6l.26.83a2.34 2.34 0 001.12 1.38l1.53.82c.1.05.19.1.28.17.08.05.17.12.24.2a1.4 1.4 0 01.35.57l.26.86a1 1 0 01.05.32.4.4 0 01-.08.23.47.47 0 01-.23.16 1.53 1.53 0 01-.82 0 1 1 0 01-.31-.16 1.1 1.1 0 01-.22-.24c-.06-.1-.1-.2-.15-.32l-.24-.8a.48.48 0 00-.04-.08.3.3 0 00-.05-.07.2.2 0 00-.06-.03.17.17 0 00-.08-.02h-.52l-.07.01a.1.1 0 00-.05.04l-.01.06.01.1.25.8c.06.2.15.41.27.6a2 2 0 001.1.84 2.75 2.75 0 001.65.01.9.9 0 00.43-.34c.1-.14.14-.3.14-.5.01-.18-.03-.38-.1-.6l-.34-1.13a2.22 2.22 0 00-.89-1.2 3.45 3.45 0 00-.37-.23l-1.57-.83a1.38 1.38 0 01-.4-.32 1.75 1.75 0 01-.29-.55l-.18-.58a1.02 1.02 0 01-.05-.3.4.4 0 01.07-.24.41.41 0 01.21-.15 1.42 1.42 0 01.78 0 .93.93 0 01.52.4c.06.09.1.19.14.3l.2.68.04.1.05.05c.01.02.03.03.06.04h.08l.52.01.08-.01a.1.1 0 00.05-.03v-.06-.09l-.21-.67a2.76 2.76 0 00-.27-.6 2.1 2.1 0 00-.43-.5 2.02 2.02 0 00-.63-.34 2.67 2.67 0 00-.86-.14m4.76.05c-.33 0-.58.04-.78.11-.2.08-.32.2-.41.34a.94.94 0 00-.12.5c0 .18.04.38.1.59l1.48 4.81c.07.21.16.42.27.6a1.95 1.95 0 001.05.84c.24.09.53.13.86.13a2 2 0 00.78-.12c.2-.08.33-.2.42-.33a.95.95 0 00.12-.5c0-.19-.03-.4-.1-.6l-.27-.88a1.94 1.94 0 00-.04-.08.42.42 0 00-.05-.07.18.18 0 00-.07-.03.2.2 0 00-.08-.02h-.51c-.03 0-.06 0-.08.02a.08.08 0 00-.04.03.1.1 0 00-.01.06c0 .03 0 .05.02.09l.26.85c.04.12.05.22.05.31 0 .1-.02.18-.07.25a.4.4 0 01-.2.15c-.1.03-.22.05-.38.05-.15 0-.29-.02-.4-.06a.92.92 0 01-.52-.4c-.06-.09-.1-.2-.14-.3l-1.47-4.77a.94.94 0 01-.05-.31c0-.1.02-.17.06-.24a.39.39 0 01.21-.15 1 1 0 01.37-.06c.16 0 .3.03.4.06.13.04.23.1.31.16.1.07.16.15.22.24.06.1.1.2.14.31l.21.7.04.09.05.06.07.04.08.01h.59l.05-.04v-.06l-.01-.1-.23-.71a2.48 2.48 0 00-.26-.6 2 2 0 00-1.06-.84 2.82 2.82 0 00-.86-.13" fill="transparent"/>
    </g>
  </g>
</svg>
